<svg width="30" height="37" viewBox="0 0 30 37" fill="none" xmlns="http://www.w3.org/2000/svg">
<circle cx="15" cy="22.0001" r="15" fill="#FFC369"/>
<path d="M13.6779 26.5C13.586 26.4997 13.4952 26.4807 13.411 26.4441C13.3268 26.4076 13.2512 26.3542 13.1887 26.2874L9.93166 22.8533C9.80991 22.7247 9.74468 22.5535 9.75034 22.3772C9.756 22.2009 9.83206 22.0341 9.96181 21.9134C10.0916 21.7928 10.2644 21.7281 10.4422 21.7337C10.62 21.7393 10.7883 21.8147 10.9101 21.9433L13.6712 24.8593L19.3073 18.7483C19.3645 18.6777 19.4356 18.6195 19.5164 18.5771C19.5971 18.5348 19.6857 18.5092 19.7768 18.5021C19.8679 18.4949 19.9594 18.5063 20.0459 18.5355C20.1324 18.5647 20.2119 18.6111 20.2796 18.6718C20.3473 18.7326 20.4018 18.8065 20.4397 18.8888C20.4776 18.9712 20.498 19.0604 20.4999 19.151C20.5017 19.2415 20.4848 19.3314 20.4503 19.4152C20.4158 19.4991 20.3644 19.575 20.2991 19.6384L14.1738 26.2808C14.1119 26.3488 14.0365 26.4034 13.9523 26.4411C13.8681 26.4788 13.777 26.4989 13.6846 26.5H13.6779Z" fill="white"/>
</svg>
