<svg width="130" height="130" viewBox="0 0 130 130" fill="none" xmlns="http://www.w3.org/2000/svg">
<mask id="mask0" mask-type="alpha" maskUnits="userSpaceOnUse" x="0" y="0" width="130" height="130">
<circle cx="65" cy="65" r="65" fill="#DBE2F3"/>
</mask>
<g mask="url(#mask0)">
<path d="M81.6274 94.6694C81.2592 94.7216 81.0446 94.7392 81.0446 94.7392L60.0396 97.7158C60.0379 97.717 59.832 97.7571 59.4853 97.8062C53.816 98.6094 47.4382 97.2118 46.5416 90.8824L39.9846 44.5983C38.8869 36.85 44.4307 31.313 56.024 28.5686L54.5077 17.8657L64.2003 16.4926L65.7165 27.1954C77.6159 26.6117 84.4822 30.3906 85.5799 38.1389L92.1369 84.423C92.6184 87.8221 91.236 90.6085 88.143 92.4813C85.6811 93.9715 82.7661 94.5081 81.6274 94.6694Z" fill="#D6FEFD"/>
<path d="M40.4991 48.2291L46.5417 90.8824C47.0338 94.3561 49.1804 96.3366 51.9493 97.291L88.7231 92.0813C91.3946 90.2206 92.5861 87.5931 92.137 84.423L86.0944 41.7697L40.4991 48.2291Z" fill="#418DE8"/>
<path d="M88.0286 70.9105C88.3143 71.9766 88.5289 73.0519 88.7338 74.1295C88.9448 75.2053 89.1075 76.2888 89.2699 77.3706C89.4164 78.4565 89.5611 79.5426 89.6563 80.6348C89.7579 81.727 89.8504 82.8196 89.872 83.9231C89.5854 82.8571 89.3699 81.7819 89.1659 80.7042C88.954 79.6286 88.7913 78.545 88.6314 77.4611C88.486 76.3769 88.3413 75.2908 88.2461 74.1986C88.1427 73.1066 88.0511 72.0139 88.0286 70.9105Z" fill="white"/>
<path d="M84.4121 45.3826C84.7075 46.517 84.932 47.6624 85.1465 48.8082C85.3678 49.9558 85.5401 51.1076 85.7124 52.2595C85.8687 53.4145 86.0231 54.5688 86.1283 55.7319C86.2397 56.8933 86.3422 58.0559 86.3735 59.2277C86.0772 58.0935 85.8518 56.9483 85.638 55.8014C85.416 54.6548 85.2437 53.503 85.0739 52.3499C84.9186 51.1957 84.7643 50.0413 84.6589 48.8773C84.5459 47.7171 84.4443 46.5543 84.4121 45.3826Z" fill="white"/>
<path d="M65.4027 29.2974C66.8718 29.082 68.3607 28.9938 69.8514 29.0089C71.3414 29.0186 72.8352 29.1715 74.3075 29.4704C75.7733 29.7877 77.2247 30.2627 78.5336 31.0245C79.1867 31.4056 79.8014 31.8517 80.3578 32.3582C80.8991 32.8815 81.3851 33.4603 81.7607 34.1006C80.7889 32.9768 79.6034 32.0968 78.3006 31.4615C76.9942 30.834 75.601 30.3947 74.1752 30.1011C72.7502 29.7937 71.2913 29.6284 69.8279 29.5023C68.3622 29.3857 66.8883 29.3471 65.4027 29.2974Z" fill="white"/>
<path d="M65.7672 16.3612C65.8339 16.8318 65.4873 17.2758 64.9996 17.3448L53.9789 18.9061C53.4895 18.9755 53.035 18.645 52.9683 18.1744L52.871 17.4874C52.8038 17.0133 53.1488 16.5705 53.6382 16.5012L64.6589 14.9399C65.1466 14.8708 65.6027 15.2001 65.6699 15.6743L65.7672 16.3612Z" fill="#62DAFF"/>
<path d="M93.878 91.2868C94.0034 92.1723 93.3402 93.0064 92.4053 93.1389L48.7067 99.3296C47.77 99.4623 46.9021 98.8451 46.7766 97.9596L46.2133 93.9831C46.0879 93.0976 46.7502 92.2636 47.6868 92.1309L91.3855 85.9402C92.3203 85.8078 93.1892 86.4249 93.3146 87.3103L93.878 91.2868Z" fill="#62DAFF"/>
<path d="M48.4785 97.7186L47.9152 93.742L91.6138 87.5513L92.1772 91.5279L48.4785 97.7186Z" fill="#62DAFF"/>
<path d="M90.3373 66.2952C90.4629 67.1816 89.7996 68.0157 88.8648 68.1482L45.1661 74.3389C44.2295 74.4716 43.3616 73.8543 43.236 72.968L42.6728 68.9924C42.5472 68.106 43.2095 67.272 44.1462 67.1393L87.8448 60.9486C88.7797 60.8161 89.6485 61.4332 89.7741 62.3196L90.3373 66.2952Z" fill="#62DAFF"/>
<path d="M44.938 72.7269L44.3748 68.7513L88.0734 62.5606L88.6366 66.5362L44.938 72.7269Z" fill="#62DAFF"/>
<path d="M86.8477 41.6628C86.9733 42.5492 86.3099 43.3824 85.375 43.5148L41.6764 49.7056C40.7397 49.8382 39.8719 49.2219 39.7464 48.3356L39.1834 44.3617C39.058 43.4763 39.7203 42.6423 40.6569 42.5096L84.3556 36.3189C85.2904 36.1864 86.1593 36.8035 86.2847 37.689L86.8477 41.6628Z" fill="#62DAFF"/>
<path d="M41.4482 48.0946L40.8853 44.1208L84.5839 37.9301L85.1469 41.9039L41.4482 48.0946Z" fill="#62DAFF"/>
<path d="M64.7301 20.0276L54.9828 21.4085C54.4287 21.487 54.0759 22.126 54.1802 22.8624L54.3491 24.055C54.4538 24.7941 54.9703 25.31 55.5244 25.2315L65.2717 23.8506C65.8258 23.7721 66.1769 23.1333 66.0722 22.3942L65.9032 21.2016C65.7989 20.4652 65.2842 19.9491 64.7301 20.0276Z" fill="#BBFBFA"/>
<path d="M113.854 78.1244C113.854 79.418 114.903 80.4666 116.196 80.4666C117.49 80.4666 118.538 79.418 118.538 78.1244C118.538 76.8307 117.49 75.7826 116.196 75.7826C114.903 75.7826 113.854 76.8307 113.854 78.1244Z" fill="#61C9F8"/>
<path d="M117.449 77.2467C117.702 77.7642 117.596 78.4468 117.21 78.9099C116.825 79.3741 116.173 79.6023 115.618 79.4471C116.181 79.3951 116.682 79.1466 117.016 78.7479C117.347 78.3482 117.501 77.8094 117.449 77.2467Z" fill="white"/>
<path d="M4.44401 194.186H125.115V109.506C125.199 107.068 125.857 104.19 125.247 94.2877C124.949 89.4504 107.667 99.6293 103.26 99.8369C103.023 99.848 102.779 99.8038 102.577 99.6785C102.053 99.3538 102.177 98.8552 102.351 98.4467C103.769 95.1252 107.798 94.0284 110.995 92.3496C114.192 90.6708 117.032 86.3831 114.592 83.7212C112.134 81.0384 107.686 83.4758 105.312 86.2332C103.681 88.1271 101.747 90.347 99.5657 91.2122C97.9345 91.8594 96.3658 90.0719 97.2162 88.5365C98.2269 86.7126 100.036 85.1648 101.535 83.6166C105.52 79.498 107.94 73.8864 108.121 68.1474C108.171 66.5506 107.209 65.0494 105.704 64.5147C103.19 63.6217 101.473 66.0345 100.436 68.1353C97.1578 74.7786 94.3875 82.2078 88.3005 86.4303C87.2695 87.1454 86.1062 87.7665 84.8521 87.7976C83.1625 87.8391 81.6596 86.825 80.1634 86.0388C72.7314 82.1332 62.77 83.8593 57.085 90.0371C53.6379 90.5226 50.7219 87.332 49.4921 84.0754C48.2622 80.819 47.9847 77.1896 46.2195 74.1892C44.2467 70.8353 41.0909 68.6143 37.4558 68.5269C36.0751 68.4934 35.0117 69.7553 35.2487 71.1165C35.5481 72.8368 36.3816 74.4079 37.7326 75.632C39.6845 77.4003 40.516 78.069 41.3985 80.551C42.4511 83.5119 42.2276 89.3353 37.8011 86.9448C36.8002 86.4044 35.9988 85.5459 35.5066 84.5203C32.8893 79.0656 27.3421 75.2039 21.3567 74.5065C18.5915 74.1841 15.6019 74.5551 13.55 76.6255C12.3013 77.8854 11.6916 79.6837 12.1416 81.3993C13.0987 85.0523 17.7827 85.7542 21.4978 86.244C27.5305 87.0397 33.3926 89.104 38.5924 92.2642C39.7929 92.9937 41.0308 94.0854 41.7441 95.2876C42.5814 96.6987 41.1304 98.3555 39.6207 97.7138C28.4028 92.9454 16.5039 89.7806 4.39844 88.3499L4.44401 194.186Z" fill="#61C9F8"/>
<path d="M15.5137 56.4808C14.7177 55.4805 13.9372 54.1791 14.4294 52.9993C14.8699 51.944 16.2489 51.5051 17.3346 51.8636C18.4206 52.2225 19.2092 53.1958 19.6532 54.2497C20.0974 55.3033 20.253 56.4514 20.4671 57.5749C20.8783 59.7371 21.7864 61.3748 22.7309 63.2902C19.9614 61.8163 17.4534 58.9195 15.5137 56.4808Z" fill="#61C9F8"/>
<path d="M16.2226 63.6021C15.5451 63.1339 14.7771 62.7197 13.9534 62.7322C13.13 62.7447 12.2671 63.3219 12.1959 64.1423C12.124 64.9751 12.8414 65.6628 13.5716 66.0692C14.8831 66.7994 16.3938 67.0644 17.813 67.5515C18.9689 67.9485 20.039 68.5599 20.8482 69.4579C19.8854 67.11 18.318 65.0504 16.2226 63.6021Z" fill="#61C9F8"/>
<path d="M11.5767 47.8053C11.6537 48.7222 12.4591 49.4031 13.376 49.3261C14.2929 49.2491 14.9735 48.4436 14.8968 47.5271C14.8199 46.6102 14.0144 45.9293 13.0975 46.0059C12.181 46.0829 11.5001 46.8884 11.5767 47.8053Z" fill="#61C9F8"/>
<path d="M10.3636 59.49C10.419 60.1487 10.9976 60.6381 11.6569 60.5831C12.3156 60.5274 12.8051 59.9488 12.7497 59.2898C12.6947 58.6309 12.1154 58.1417 11.4567 58.1967C10.7978 58.2521 10.3083 58.8311 10.3636 59.49Z" fill="#61C9F8"/>
<path d="M16.4551 52.7272C16.9341 52.6975 17.4246 52.8863 17.8159 53.1786C18.2149 53.4679 18.5326 53.8521 18.7935 54.2582C19.309 55.0748 19.6162 56.0342 19.601 56.9893C19.3495 56.0727 19.0052 55.2142 18.5086 54.4388C18.2662 54.0499 17.985 53.6887 17.6501 53.3825C17.3142 53.0817 16.922 52.8309 16.4551 52.7272Z" fill="white"/>
<path d="M12.9922 46.7523C13.1468 46.6955 13.3264 46.6959 13.4888 46.7489C13.6535 46.7985 13.8017 46.8954 13.9239 47.0166C14.0428 47.1408 14.1366 47.291 14.1829 47.4565C14.2328 47.6202 14.2294 47.7998 14.1693 47.953C14.087 47.6374 13.9415 47.397 13.743 47.1935C13.5441 46.9909 13.3061 46.8404 12.9922 46.7523Z" fill="white"/>
<path d="M13.2456 63.7307C13.6689 63.6018 14.1304 63.5754 14.5764 63.6477C15.0247 63.7149 15.4575 63.8762 15.8518 64.1017C16.243 64.333 16.5972 64.6301 16.877 64.9862C17.1602 65.3383 17.3652 65.7529 17.4617 66.1846C17.0198 65.4214 16.4098 64.8161 15.6823 64.3937C14.9558 63.9687 14.1277 63.7368 13.2456 63.7307Z" fill="white"/>
<path d="M11.4736 58.6664C11.7454 58.5323 12.1177 58.6627 12.293 58.9391C12.4712 59.2143 12.4331 59.6075 12.1967 59.7976C12.247 59.5117 12.2008 59.269 12.0796 59.0755C11.9557 58.8841 11.7542 58.74 11.4736 58.6664Z" fill="white"/>
<path d="M14.7422 81.9181C14.1845 81.3871 13.9604 80.5418 14.0545 79.7579C14.0994 79.3629 14.2139 78.9744 14.3894 78.6108C14.566 78.2445 14.8229 77.9235 15.1034 77.6389C15.6702 77.0616 16.3913 76.6785 17.1232 76.3969C17.8639 76.1251 18.6295 75.9658 19.4022 75.8699C20.9517 75.7055 22.531 75.8558 24.0066 76.3247C25.4788 76.7956 26.8531 77.5714 27.956 78.6189C26.6799 77.7945 25.2998 77.1919 23.8634 76.8317C22.4253 76.485 20.9369 76.3753 19.4782 76.5404C18.7493 76.6177 18.0239 76.7676 17.3372 76.9978C16.6492 77.2247 15.9997 77.5572 15.4626 78.0217C14.9218 78.4835 14.5336 79.1013 14.3796 79.8112C14.2129 80.5094 14.305 81.2899 14.7422 81.9181Z" fill="white"/>
<path d="M36.854 70.7984C37.4536 70.526 38.1237 70.4106 38.7911 70.4156C39.4598 70.4207 40.1313 70.5436 40.7619 70.7775C41.3935 71.0084 41.9836 71.3518 42.4954 71.7822C43.0065 72.2119 43.441 72.7358 43.7188 73.333C43.2178 72.908 42.7165 72.5319 42.1868 72.2092C41.6572 71.8875 41.1015 71.6245 40.5283 71.4105C39.9537 71.1992 39.3606 71.0385 38.7485 70.9389C38.1362 70.8396 37.5106 70.8001 36.854 70.7984Z" fill="white"/>
<path d="M61.8862 90.3366C62.3592 89.2313 63.2295 88.3138 64.2395 87.6389C65.2611 86.9678 66.4399 86.5505 67.6491 86.3558C68.8655 86.1546 70.1 86.2217 71.3025 86.4C72.5063 86.5877 73.6761 86.9168 74.8195 87.2919C77.1032 88.0596 79.2786 89.0342 81.5533 89.6661C82.6893 89.9727 83.8512 90.2093 85.026 90.2552C86.1978 90.3146 87.3955 90.1495 88.4782 89.633C87.4657 90.2876 86.2298 90.5364 85.025 90.5864C83.81 90.6191 82.6011 90.447 81.424 90.1769C79.0632 89.6324 76.8504 88.6726 74.6064 87.9319C73.4867 87.5511 72.351 87.2301 71.1985 87.0289C70.0494 86.822 68.8719 86.7457 67.7207 86.876C66.5712 87.0164 65.4285 87.3435 64.4104 87.9201C63.3831 88.4785 62.4942 89.3046 61.8862 90.3366Z" fill="white"/>
<path d="M102.868 67.2407C102.992 66.9406 103.235 66.6803 103.537 66.5217C103.837 66.3576 104.185 66.285 104.534 66.2901C104.881 66.2965 105.239 66.3981 105.546 66.5848C105.852 66.7674 106.111 67.0243 106.313 67.3126C106.727 67.8889 106.912 68.5954 106.941 69.2851C106.966 69.9762 106.838 70.6453 106.689 71.2833C106.361 72.5425 106.01 73.7895 105.521 75.0045C105.038 76.2144 104.419 77.3919 103.575 78.382C104.184 77.2356 104.642 76.0449 105.025 74.8276C105.401 73.6106 105.722 72.3626 106.034 71.1233C106.191 70.5106 106.305 69.8995 106.304 69.298C106.313 68.7008 106.168 68.107 105.874 67.6002C105.575 67.1013 105.103 66.6945 104.506 66.6182C103.926 66.5247 103.248 66.7013 102.868 67.2407Z" fill="white"/>
<path d="M125.991 119.196C126.003 117.502 126.003 117.502 125.993 113.527C125.98 108.031 115.345 114.065 109.249 113.987C103.577 113.915 99.7372 113.658 92.6371 111.014C84.0627 107.82 73.8349 100.953 63.6986 100.329C55.899 99.85 45.1391 103.763 35.0221 105.504C21.2705 107.871 15.5154 97.3691 4.63399 100.536L4 195.562L125.456 194.934L125.991 119.196Z" fill="#418DE8"/>
</g>
</svg>
