<svg width="16" height="16" viewBox="0 0 16 16" fill="none" xmlns="http://www.w3.org/2000/svg">
<ellipse cx="8.00078" cy="7.99988" rx="7.2" ry="7.2" fill="#FFC369"/>
<path d="M8 0C6.41775 0 4.87103 0.469192 3.55544 1.34824C2.23985 2.22729 1.21447 3.47672 0.608967 4.93853C0.00346627 6.40034 -0.15496 8.00887 0.153721 9.56072C0.462403 11.1126 1.22433 12.538 2.34315 13.6569C3.46197 14.7757 4.88743 15.5376 6.43928 15.8463C7.99113 16.155 9.59966 15.9965 11.0615 15.391C12.5233 14.7855 13.7727 13.7602 14.6518 12.4446C15.5308 11.129 16 9.58225 16 8C16 6.94942 15.7931 5.90914 15.391 4.93853C14.989 3.96793 14.3997 3.08601 13.6569 2.34315C12.914 1.60028 12.0321 1.011 11.0615 0.608964C10.0909 0.206926 9.05058 0 8 0ZM8 14.4C6.7342 14.4 5.49683 14.0246 4.44435 13.3214C3.39188 12.6182 2.57158 11.6186 2.08717 10.4492C1.60277 9.27972 1.47603 7.9929 1.72298 6.75142C1.96992 5.50994 2.57946 4.36957 3.47452 3.47452C4.36958 2.57946 5.50995 1.96992 6.75142 1.72297C7.9929 1.47603 9.27973 1.60277 10.4492 2.08717C11.6186 2.57157 12.6182 3.39187 13.3214 4.44435C14.0246 5.49682 14.4 6.7342 14.4 8C14.4 9.69738 13.7257 11.3252 12.5255 12.5255C11.3253 13.7257 9.69739 14.4 8 14.4Z" fill="#FFC369"/>
<path d="M10.4008 7.20012H5.60078C5.38861 7.20012 5.18513 7.2844 5.0351 7.43443C4.88507 7.58446 4.80078 7.78795 4.80078 8.00012C4.80078 8.21229 4.88507 8.41577 5.0351 8.5658C5.18513 8.71583 5.38861 8.80012 5.60078 8.80012H10.4008C10.613 8.80012 10.8164 8.71583 10.9665 8.5658C11.1165 8.41577 11.2008 8.21229 11.2008 8.00012C11.2008 7.78795 11.1165 7.58446 10.9665 7.43443C10.8164 7.2844 10.613 7.20012 10.4008 7.20012Z" fill="white"/>
</svg>
