<svg width="8" height="8" viewBox="0 0 8 8" fill="none" xmlns="http://www.w3.org/2000/svg">
<path d="M6.40078 3.19987H4.80078V1.59987C4.80078 1.38769 4.71649 1.18421 4.56647 1.03418C4.41644 0.884151 4.21295 0.799866 4.00078 0.799866C3.78861 0.799866 3.58512 0.884151 3.4351 1.03418C3.28507 1.18421 3.20078 1.38769 3.20078 1.59987V3.19987H1.60078C1.38861 3.19987 1.18512 3.28415 1.0351 3.43418C0.885067 3.58421 0.800781 3.78769 0.800781 3.99986C0.800781 4.21204 0.885067 4.41552 1.0351 4.56555C1.18512 4.71558 1.38861 4.79986 1.60078 4.79986H3.20078V6.39986C3.20078 6.61204 3.28507 6.81552 3.4351 6.96555C3.58512 7.11558 3.78861 7.19986 4.00078 7.19986C4.21295 7.19986 4.41644 7.11558 4.56647 6.96555C4.71649 6.81552 4.80078 6.61204 4.80078 6.39986V4.79986H6.40078C6.61295 4.79986 6.81644 4.71558 6.96647 4.56555C7.11649 4.41552 7.20078 4.21204 7.20078 3.99986C7.20078 3.78769 7.11649 3.58421 6.96647 3.43418C6.81644 3.28415 6.61295 3.19987 6.40078 3.19987Z" fill="white"/>
</svg>
