<svg width="16" height="16" viewBox="0 0 16 16" fill="none" xmlns="http://www.w3.org/2000/svg">
<ellipse cx="7.99883" cy="8.00047" rx="7.2" ry="7.2" fill="#FFC369"/>
<path d="M8 0C6.41775 0 4.87103 0.469192 3.55544 1.34824C2.23985 2.22729 1.21447 3.47672 0.608967 4.93853C0.00346627 6.40034 -0.15496 8.00887 0.153721 9.56072C0.462403 11.1126 1.22433 12.538 2.34315 13.6569C3.46197 14.7757 4.88743 15.5376 6.43928 15.8463C7.99113 16.155 9.59966 15.9965 11.0615 15.391C12.5233 14.7855 13.7727 13.7602 14.6518 12.4446C15.5308 11.129 16 9.58225 16 8C16 6.94942 15.7931 5.90914 15.391 4.93853C14.989 3.96793 14.3997 3.08601 13.6569 2.34315C12.914 1.60028 12.0321 1.011 11.0615 0.608964C10.0909 0.206926 9.05058 0 8 0ZM8 14.4C6.7342 14.4 5.49683 14.0246 4.44435 13.3214C3.39188 12.6182 2.57158 11.6186 2.08717 10.4492C1.60277 9.27972 1.47603 7.9929 1.72298 6.75142C1.96992 5.50994 2.57946 4.36957 3.47452 3.47452C4.36958 2.57946 5.50995 1.96992 6.75142 1.72297C7.9929 1.47603 9.27973 1.60277 10.4492 2.08717C11.6186 2.57157 12.6182 3.39187 13.3214 4.44435C14.0246 5.49682 14.4 6.7342 14.4 8C14.4 9.69738 13.7257 11.3252 12.5255 12.5255C11.3253 13.7257 9.69739 14.4 8 14.4Z" fill="#FFC369"/>
<path d="M10.4008 7.19988H8.80078V5.59988C8.80078 5.38771 8.71649 5.18422 8.56647 5.0342C8.41644 4.88417 8.21295 4.79988 8.00078 4.79988C7.78861 4.79988 7.58512 4.88417 7.4351 5.0342C7.28507 5.18422 7.20078 5.38771 7.20078 5.59988V7.19988H5.60078C5.38861 7.19988 5.18512 7.28417 5.0351 7.4342C4.88507 7.58422 4.80078 7.78771 4.80078 7.99988C4.80078 8.21205 4.88507 8.41554 5.0351 8.56557C5.18512 8.71559 5.38861 8.79988 5.60078 8.79988H7.20078V10.3999C7.20078 10.6121 7.28507 10.8155 7.4351 10.9656C7.58512 11.1156 7.78861 11.1999 8.00078 11.1999C8.21295 11.1999 8.41644 11.1156 8.56647 10.9656C8.71649 10.8155 8.80078 10.6121 8.80078 10.3999V8.79988H10.4008C10.613 8.79988 10.8164 8.71559 10.9665 8.56557C11.1165 8.41554 11.2008 8.21205 11.2008 7.99988C11.2008 7.78771 11.1165 7.58422 10.9665 7.4342C10.8164 7.28417 10.613 7.19988 10.4008 7.19988Z" fill="white"/>
</svg>
