<?xml version="1.0" standalone="no"?>
<!DOCTYPE svg PUBLIC "-//W3C//DTD SVG 20010904//EN"
 "http://www.w3.org/TR/2001/REC-SVG-20010904/DTD/svg10.dtd">
<svg version="1.0" xmlns="http://www.w3.org/2000/svg"
 width="700.000000pt" height="700.000000pt" viewBox="0 0 700.000000 700.000000"
 preserveAspectRatio="xMidYMid meet">
<metadata>
Created by potrace 1.11, written by Peter Selinger 2001-2013
</metadata>
<g transform="translate(0.000000,700.000000) scale(0.100000,-0.100000)"
fill="#000000" stroke="none">
<path d="M3360 6179 c-63 -10 -144 -21 -180 -25 -36 -3 -67 -8 -70 -9 -3 -2
-30 -6 -60 -9 -30 -4 -66 -9 -80 -11 -14 -3 -41 -7 -60 -10 -48 -8 -60 -22
-60 -66 0 -30 5 -42 25 -55 14 -9 34 -14 45 -11 22 6 23 1 35 -82 5 -36 2 -48
-15 -66 -41 -43 -20 -174 30 -190 11 -3 20 -9 21 -13 0 -4 3 -18 5 -32 3 -14
8 -51 13 -82 l7 -56 -45 -12 c-104 -26 -272 -86 -356 -126 -156 -75 -252 -146
-335 -250 -83 -104 -122 -206 -134 -354 -1 -8 -10 -30 -20 -49 -18 -33 -18
-73 -2 -156 2 -11 7 -46 11 -79 5 -42 13 -65 30 -82 24 -24 42 -126 112 -644
3 -19 15 -105 27 -191 19 -135 20 -159 8 -175 -9 -13 -12 -37 -10 -74 l4 -56
-76 39 c-93 47 -208 69 -259 47 -78 -32 -93 -117 -42 -229 28 -61 53 -93 147
-186 133 -131 177 -229 177 -390 0 -177 -71 -243 -199 -185 -62 28 -112 82
-159 170 -166 309 -503 513 -842 512 -234 -1 -403 -132 -404 -312 -1 -73 30
-138 88 -189 41 -37 141 -85 197 -95 15 -3 34 -7 44 -10 9 -3 89 -17 177 -31
207 -32 279 -48 420 -93 195 -63 438 -180 550 -265 77 -58 135 -135 135 -178
0 -40 -38 -80 -79 -84 -21 -1 -83 18 -179 57 -201 80 -342 130 -532 188 -58
18 -116 36 -130 41 -32 11 -257 70 -290 76 -14 2 -50 10 -80 18 -62 15 -254
56 -285 60 -11 1 -48 8 -83 14 -34 7 -79 14 -99 17 -20 2 -48 6 -62 9 -86 14
-194 25 -198 21 -15 -14 164 -390 252 -529 30 -49 55 -90 55 -93 0 -3 4 -10
10 -17 5 -7 46 -64 91 -126 189 -268 408 -499 679 -716 92 -74 370 -265 386
-265 4 0 15 -6 23 -14 29 -25 304 -161 431 -213 269 -110 577 -194 835 -228
22 -2 56 -7 75 -10 186 -26 697 -27 837 -1 17 3 104 16 148 21 179 23 497 112
739 208 135 53 420 193 463 227 14 11 30 20 35 20 5 0 14 5 21 10 7 6 62 44
124 84 251 167 495 380 675 590 34 39 64 73 68 76 17 13 181 236 245 335 40
61 106 173 148 250 l76 140 -34 3 c-72 7 -238 -49 -620 -208 -371 -154 -468
-180 -495 -130 -8 16 -6 30 9 63 43 94 122 153 351 265 173 84 226 124 287
213 36 53 63 130 63 178 -1 85 -84 174 -170 184 -107 12 -258 -65 -367 -185
-183 -204 -307 -297 -377 -284 -41 8 -73 41 -81 86 -5 30 0 44 33 95 21 33 84
106 138 161 133 137 146 152 208 243 44 66 98 166 136 256 56 132 94 385 71
471 -12 44 -59 101 -101 122 -66 32 -151 13 -208 -46 -31 -33 -82 -114 -107
-167 -10 -22 -64 -134 -121 -250 -112 -228 -172 -333 -261 -452 l-57 -78 -7
35 c-4 19 -11 62 -14 95 -4 33 -9 69 -11 79 -2 11 -22 151 -45 311 -38 270
-40 296 -26 335 12 37 12 55 -4 158 -10 64 -18 120 -19 124 0 4 -11 18 -24 33
-18 19 -26 44 -35 113 -6 48 -13 96 -15 107 -2 11 -7 45 -11 75 -3 30 -8 66
-10 80 -83 564 -87 601 -72 633 16 33 16 39 -4 177 -14 104 -23 127 -54 152
-14 11 -25 25 -25 31 0 21 -58 135 -91 179 -69 91 -201 181 -331 225 -55 19
-235 59 -278 62 -8 1 -86 3 -174 5 -87 3 -161 7 -164 11 -3 3 -7 11 -8 18 -1
7 -5 37 -9 67 -4 30 -8 63 -10 72 -2 10 5 20 15 23 39 12 30 155 -12 187 -13
9 -25 15 -29 12 -3 -2 -10 28 -16 66 l-9 69 27 6 c38 9 50 27 47 69 -4 65 -20
69 -178 45z"/>
<path d="M669 4513 c-18 -4 -37 -36 -44 -71 -15 -79 99 -130 152 -68 32 37 31
87 -2 121 -25 24 -61 30 -106 18z"/>
<path d="M806 4179 c-33 -28 -35 -33 -32 -83 3 -41 11 -65 36 -101 42 -61 130
-163 209 -242 58 -59 188 -160 195 -152 2 2 -16 45 -40 94 -42 88 -67 166 -79
247 -25 169 -102 268 -207 268 -39 0 -54 -6 -82 -31z"/>
<path d="M595 3857 c-27 -14 -35 -27 -35 -58 0 -32 28 -59 63 -59 23 0 56 21
58 38 0 4 2 15 4 24 8 41 -51 77 -90 55z"/>
<path d="M694 3602 c-36 -28 -44 -53 -29 -88 21 -50 71 -80 219 -128 95 -32
155 -58 189 -83 l49 -36 -17 34 c-62 120 -140 211 -236 275 -54 35 -75 44
-110 44 -27 0 -53 -7 -65 -18z"/>
<path d="M6203 2906 c-45 -20 -67 -60 -68 -118 0 -45 4 -53 37 -84 30 -27 46
-34 79 -34 82 0 137 61 126 140 -11 82 -98 130 -174 96z"/>
</g>
</svg>
